<svg width="8" height="12" viewBox="0 0 8 12" fill="none" xmlns="http://www.w3.org/2000/svg">
<path d="M5.29592 0.294092L0.295921 5.29409C0.202193 5.38705 0.127797 5.49766 0.0770283 5.61951C0.0262594 5.74137 0.00012207 5.87208 0.00012207 6.00409C0.00012207 6.1361 0.0262594 6.26681 0.0770283 6.38867C0.127797 6.51053 0.202193 6.62113 0.295921 6.71409L5.29592 11.7141C5.38888 11.8078 5.49948 11.8822 5.62134 11.933C5.7432 11.9838 5.87391 12.0099 6.00592 12.0099C6.13793 12.0099 6.26864 11.9838 6.3905 11.933C6.51236 11.8822 6.62296 11.8078 6.71592 11.7141C6.80965 11.6211 6.88404 11.5105 6.93481 11.3887C6.98558 11.2668 7.01172 11.1361 7.01172 11.0041C7.01172 10.8721 6.98558 10.7414 6.93481 10.6195C6.88404 10.4977 6.80965 10.3871 6.71592 10.2941L2.41592 6.00409L6.71592 1.71409C6.90422 1.52579 7.01001 1.27039 7.01001 1.00409C7.01001 0.872233 6.98404 0.741665 6.93358 0.619843C6.88312 0.498021 6.80916 0.38733 6.71592 0.294092C6.52762 0.105788 6.27222 0 6.00592 0C5.87406 0 5.74349 0.0259719 5.62167 0.0764322C5.49985 0.126893 5.38916 0.200853 5.29592 0.294092Z" fill="#0F351D"/>
</svg>
