<svg width="16" height="16" viewBox="0 0 16 16" fill="none" xmlns="http://www.w3.org/2000/svg">
<path d="M11.7477 10.9216C10.2094 9.22529 9.75564 7.65524 9.65336 6.60504C10.0724 4.95816 9.56082 3.03763 8.15943 1.63621C6.14216 -0.381111 3.04379 -0.557723 1.24229 1.24382C-0.557463 3.04337 -0.380856 6.14156 1.63666 8.15913C3.0388 9.5613 4.96078 10.0727 6.60763 9.65285C7.65804 9.75562 9.22731 10.2101 10.9223 11.7475C10.9298 11.7375 10.9373 11.7275 10.9472 11.7201L11.7205 10.9468C11.7305 10.9368 11.738 10.9293 11.748 10.9218L11.7477 10.9216ZM3.50127 8.18632L4.04257 7.64501L4.72281 8.32526L4.50056 8.54752C4.15325 8.47083 3.81735 8.34942 3.50127 8.18632ZM2.49925 7.47538L3.18622 6.78864L3.86621 7.46865L3.27328 8.06159C2.99434 7.89548 2.73474 7.69887 2.49925 7.47538ZM1.73619 6.52572L2.32963 5.93202L3.00987 6.61253L2.32264 7.29952C2.09914 7.06413 1.90253 6.8046 1.73644 6.52572H1.73619ZM1.24977 5.29866L1.47303 5.07565L2.15327 5.75591L1.61147 6.29772C1.44825 5.98173 1.32667 5.64591 1.24977 5.29866ZM1.1712 4.77382L1.29667 4.89929L1.1949 5.00107C1.18475 4.92565 1.17685 4.84995 1.1712 4.77407V4.77382ZM1.37125 3.26039L2.15327 4.04242L1.47303 4.72268L1.15972 4.40937C1.16671 4.01349 1.23605 3.62509 1.37125 3.26039ZM2.02381 2.20022L3.00962 3.1858L2.32963 3.86606L1.47527 3.01169C1.6151 2.71435 1.80024 2.44052 2.02405 2.19997L2.02381 2.20022ZM3.01261 1.47556L3.86621 2.32943L3.18597 3.00944L2.20041 2.02386C2.44612 1.79685 2.71901 1.61276 3.01261 1.47556ZM4.411 1.16125L4.72281 1.47307L4.04257 2.15307L3.26131 1.37154C3.63001 1.23703 4.01881 1.16585 4.41125 1.161L4.411 1.16125ZM6.29607 1.61276L5.75577 2.15307L5.07553 1.47282L5.29704 1.2513C5.63728 1.32564 5.97304 1.44687 6.29607 1.61276ZM7.29784 2.32395L6.61237 3.00944L5.93213 2.32943L6.52381 1.73749C6.80277 1.90366 7.06238 2.10036 7.29784 2.32395ZM8.06015 3.27486L7.46896 3.86606L6.78872 3.1858L7.47395 2.50056C7.69745 2.73613 7.89406 2.99583 8.06015 3.27486ZM8.54607 4.50216L8.32531 4.72293L7.64507 4.04242L8.18487 3.50286C8.34796 3.81894 8.46937 4.15485 8.54607 4.50216ZM8.62415 5.02152L8.50192 4.89929L8.60095 4.80001C8.61143 4.87385 8.61841 4.94768 8.62415 5.02152ZM8.42559 6.53619L7.64532 5.75566L8.32531 5.07565L8.63612 5.38622C8.63131 5.77868 8.56012 6.16749 8.42559 6.53619ZM6.78573 8.32227L5.93213 7.46865L6.61237 6.78864L7.59718 7.77372C7.35672 7.99747 7.08297 8.18252 6.78573 8.32227ZM5.38784 8.63758L5.07553 8.32526L5.75577 7.64501L6.53703 8.42629C6.17209 8.56124 5.78371 8.63084 5.38784 8.63758ZM4.72281 4.89904L4.04257 5.5793L3.36258 4.89904L4.04257 4.21903L4.72281 4.89904ZM4.21893 4.04242L4.89917 3.36217L5.57941 4.04242L4.89917 4.72268L4.21893 4.04242ZM4.89917 5.0754L5.57941 5.75566L4.89917 6.43591L4.21893 5.75566L4.89917 5.0754ZM5.07553 4.89904L5.75577 4.21878L6.43601 4.89904L5.75577 5.5793L5.07553 4.89904ZM5.93213 4.04242L6.61237 3.36217L7.29236 4.04242L6.61237 4.72268L5.93213 4.04242ZM5.75577 3.86606L5.07553 3.1858L5.75577 2.5058L6.43601 3.18555L5.75577 3.86606ZM4.89917 3.00944L4.21893 2.32943L4.89942 1.64893L5.57966 2.32919L4.89917 3.00944ZM4.72281 3.1858L4.04257 3.86606L3.36258 3.1858L4.04257 2.5058L4.72281 3.1858ZM3.86621 4.04242L3.18622 4.72268L2.50598 4.04242L3.18597 3.36217L3.86621 4.04242ZM3.00987 4.89904L2.32963 5.5793L1.64939 4.89904L2.32963 4.21878L3.00987 4.89904ZM3.18622 5.0754L3.86621 5.75566L3.18622 6.43591L2.50598 5.75566L3.18622 5.0754ZM4.04257 5.93202L4.72281 6.61228L4.04257 7.29228L3.36258 6.61228L4.04257 5.93202ZM4.89917 6.78864L5.57941 7.46865L4.89917 8.1489L4.21893 7.46865L4.89917 6.78864ZM5.75577 7.29253L5.07553 6.61228L5.75577 5.93202L6.43601 6.61228L5.75577 7.29253ZM5.93213 5.75591L6.61237 5.0754L7.29261 5.75566L6.61237 6.43591L5.93213 5.75591ZM6.78872 4.89904L7.46871 4.21903L8.14895 4.89929L7.46896 5.5793L6.78872 4.89904ZM4.89917 1.29645L4.77569 1.17298C4.85028 1.17896 4.92486 1.1857 4.99945 1.19617L4.89917 1.29645ZM4.89917 8.50163L5.02339 8.6261C4.94856 8.62012 4.87348 8.61288 4.79839 8.6024L4.89917 8.50163ZM7.77354 7.59711L6.78872 6.61228L7.46896 5.93202L8.32157 6.7849C8.18208 7.0824 7.99719 7.3564 7.77354 7.59711ZM9.20586 9.68677C8.78333 9.45151 8.34135 9.25305 7.88479 9.09358C8.12176 8.93892 8.34701 8.7618 8.55356 8.55526C8.7606 8.34821 8.9382 8.12246 9.09336 7.88473C9.25301 8.34118 9.45172 8.78302 9.68729 9.20533C9.85941 9.51715 9.51766 9.85889 9.20586 9.68677ZM15.8511 14.363L12.6133 11.1251C12.5185 11.0301 12.3898 10.9765 12.2556 10.9762C12.1213 10.9759 11.9924 11.0288 11.8971 11.1234L11.1233 11.8969C11.0289 11.9922 10.976 12.1211 10.9763 12.2552C10.9767 12.3894 11.0301 12.518 11.1251 12.6128L14.3629 15.8512C14.5605 16.0483 14.8818 16.0503 15.0791 15.853L15.8528 15.0792C15.9474 14.9839 16.0003 14.855 16 14.7207C15.9997 14.5865 15.9461 14.4578 15.8511 14.363ZM2.54315 10.2705C1.90706 11.1111 1.56283 12.2437 1.3034 13.4635L1.51543 13.6705L3.04454 10.5973L2.98218 10.3553C2.92979 10.1557 2.66787 10.1059 2.54315 10.2705ZM1.90208 14.0449L4.18201 11.765L4.02237 11.1538C3.99742 11.0665 3.93007 10.9991 3.84526 10.9767L3.23162 10.8145C3.22663 10.812 3.22165 10.812 3.21666 10.8071L1.70252 13.8504L1.90208 14.0449ZM5.30951 12.8975V12.895C5.30951 12.895 5.30701 12.895 5.30701 12.8925L5.14737 12.2788C5.13649 12.2361 5.1143 12.1971 5.08314 12.166C5.05197 12.1348 5.01298 12.1126 4.97026 12.1017L4.35912 11.9421L2.07918 14.2196L2.27375 14.4067L5.30951 12.8975ZM5.766 13.1419L5.51405 13.0746L2.46582 14.5912L2.71278 14.8332C3.9176 14.5738 5.02015 14.2121 5.8533 13.581C6.01794 13.4562 5.96805 13.1943 5.766 13.1419ZM1.72497 14.2221L1.17868 13.6907L0.684778 14.1846C0.515849 14.3537 0.42096 14.583 0.42096 14.822C0.42096 15.061 0.515849 15.2903 0.684778 15.4593C0.853897 15.6282 1.08312 15.7231 1.32211 15.7231C1.56111 15.7231 1.79033 15.6282 1.95945 15.4593L2.47081 14.948L1.90208 14.3967L1.72497 14.2221Z" fill="#15A34A"/>
</svg>
