<svg width="16" height="16" viewBox="0 0 16 16" fill="none" xmlns="http://www.w3.org/2000/svg">
<path d="M15.9198 2.46069L13.8102 4.6069L12.8503 3.63034L14.9599 1.46207C14.9851 1.43621 15.0151 1.41569 15.0481 1.40169C15.0812 1.38768 15.1166 1.38047 15.1524 1.38047C15.1882 1.38047 15.2236 1.38768 15.2567 1.40169C15.2897 1.41569 15.3197 1.43621 15.3449 1.46207L15.9198 2.06897C15.9452 2.09461 15.9654 2.12512 15.9791 2.15874C15.9929 2.19235 16 2.22841 16 2.26483C16 2.30124 15.9929 2.3373 15.9791 2.37092C15.9654 2.40453 15.9452 2.43504 15.9198 2.46069ZM7.86363 0V0.551724H7.59247C7.37673 0.551724 7.16981 0.638916 7.01726 0.794119C6.8647 0.949321 6.779 1.15982 6.779 1.37931H6.23668C6.23668 1.15982 6.15097 0.949321 5.99841 0.794119C5.84586 0.638916 5.63894 0.551724 5.4232 0.551724H5.15204V0.275862C5.15204 0.202699 5.1806 0.132532 5.23146 0.0807981C5.28231 0.029064 5.35128 0 5.4232 0H7.86363ZM4.09722 4.26483C4.03349 4.13685 3.95718 4.01577 3.86945 3.90345L0.854153 6.96828C0.964787 7.05821 1.08355 7.13655 1.20937 7.20276L4.09722 4.26483ZM3.12647 3.28L0.238621 6.21517C0.303699 6.34372 0.38098 6.46566 0.469106 6.57931L3.4844 3.51448C3.37294 3.42457 3.25305 3.34603 3.12647 3.28ZM2.55975 3.07586C2.43138 3.04818 2.3005 3.03431 2.16928 3.03448C1.59786 3.04714 1.05329 3.28372 0.649137 3.69488C0.244984 4.10604 0.0124417 4.66005 0 5.24138C0 5.3749 0.013558 5.50814 0.040674 5.63862L2.55975 3.07586ZM1.7761 7.4069C1.90538 7.43457 2.03716 7.44844 2.16928 7.44828C2.7407 7.43562 3.28527 7.19904 3.68942 6.78788C4.09357 6.37672 4.32612 5.82271 4.33856 5.24138C4.33751 5.10703 4.32389 4.9731 4.29788 4.84138L1.7761 7.4069ZM10.5752 0.275862V0.551724H10.3041C10.0883 0.551724 9.88141 0.638916 9.72886 0.794119C9.5763 0.949321 9.49059 1.15982 9.49059 1.37931H8.94827C8.94827 1.15982 8.86257 0.949321 8.71001 0.794119C8.55745 0.638916 8.35054 0.551724 8.13479 0.551724H7.86363V0H10.3041C10.376 0 10.445 0.029064 10.4958 0.0807981C10.5467 0.132532 10.5752 0.202699 10.5752 0.275862ZM11.1176 1.37931V3.44276L10.0329 4.54621V1.37931C10.0329 1.30615 10.0615 1.23598 10.1123 1.18425C10.1632 1.13251 10.2322 1.10345 10.3041 1.10345H10.8464C10.9183 1.10345 10.9873 1.13251 11.0381 1.18425C11.089 1.23598 11.1176 1.30615 11.1176 1.37931ZM11.1176 9.29379V15.7241C11.1176 15.7973 11.089 15.8675 11.0381 15.9192C10.9873 15.9709 10.9183 16 10.8464 16H10.3041C10.2322 16 10.1632 15.9709 10.1123 15.9192C10.0615 15.8675 10.0329 15.7973 10.0329 15.7241V10.3972L11.1176 9.29379ZM8.40595 1.37931V6.1931L7.32131 7.29655V1.37931C7.32131 1.30615 7.34988 1.23598 7.40074 1.18425C7.45159 1.13251 7.52056 1.10345 7.59247 1.10345H8.13479C8.20671 1.10345 8.27568 1.13251 8.32653 1.18425C8.37739 1.23598 8.40595 1.30615 8.40595 1.37931ZM8.40595 12.0524V15.7241C8.40595 15.7973 8.37739 15.8675 8.32653 15.9192C8.27568 15.9709 8.20671 16 8.13479 16H7.59247C7.52056 16 7.45159 15.9709 7.40074 15.9192C7.34988 15.8675 7.32131 15.7973 7.32131 15.7241V13.1559L8.40595 12.0524ZM5.69436 1.37931V8.94345L4.60972 10.0469V1.37931C4.60972 1.30615 4.63829 1.23598 4.68914 1.18425C4.73999 1.13251 4.80896 1.10345 4.88088 1.10345H5.4232C5.49511 1.10345 5.56408 1.13251 5.61493 1.18425C5.66579 1.23598 5.69436 1.30615 5.69436 1.37931ZM5.69436 14.811V15.7241C5.69436 15.7973 5.66579 15.8675 5.61493 15.9192C5.56408 15.9709 5.49511 16 5.4232 16H4.88088C4.83525 15.9996 4.79046 15.9876 4.75065 15.9649C4.71083 15.9422 4.67728 15.9097 4.6531 15.8703L5.69436 14.811ZM13.6719 5.91724L3.84233 15.9172C3.81713 15.9431 3.78714 15.9636 3.75409 15.9776C3.72105 15.9916 3.68561 15.9988 3.64981 15.9988C3.61401 15.9988 3.57857 15.9916 3.54553 15.9776C3.51249 15.9636 3.4825 15.9431 3.45729 15.9172L1.71102 14.1572C1.66051 14.1056 1.63217 14.0356 1.63217 13.9628C1.63217 13.8899 1.66051 13.82 1.71102 13.7683L11.5623 3.77103C11.6025 3.72963 11.6547 3.70226 11.7112 3.69285C11.7677 3.68343 11.8256 3.69245 11.8768 3.71862L12.4734 4.02207L13.4305 4.99586L13.7288 5.59724C13.7539 5.64984 13.7619 5.70917 13.7516 5.76669C13.7414 5.8242 13.7135 5.87692 13.6719 5.91724Z" fill="#15A34A"/>
<path d="M13.6719 5.91724L3.84233 15.9172C3.81713 15.9431 3.78714 15.9636 3.75409 15.9776C3.72105 15.9916 3.68561 15.9988 3.64981 15.9988C3.61401 15.9988 3.57857 15.9916 3.54553 15.9776C3.51249 15.9636 3.4825 15.9431 3.45729 15.9172L1.71102 14.1572C1.66051 14.1056 1.63217 14.0356 1.63217 13.9628C1.63217 13.8899 1.66051 13.82 1.71102 13.7683L11.5623 3.77103C11.6025 3.72963 11.6547 3.70226 11.7112 3.69285C11.7677 3.68343 11.8256 3.69245 11.8768 3.71862L12.4734 4.02207L13.4305 4.99586L13.7288 5.59724C13.7539 5.64984 13.7619 5.70917 13.7516 5.76669C13.7414 5.8242 13.7135 5.87692 13.6719 5.91724Z" fill="#15A34A"/>
</svg>
