<svg width="16" height="16" viewBox="0 0 16 16" fill="none" xmlns="http://www.w3.org/2000/svg">
<path d="M8 0C3.58177 0 0 3.58177 0 8C0 12.4182 3.58177 16 8 16C12.4182 16 16 12.4182 16 8C15.9951 3.58387 12.4161 0.00493333 8 0ZM8.28553 2.30637L11.0667 1.19467C11.3823 1.3375 11.6876 1.50209 11.9805 1.68723L11.9878 1.6918C12.2755 1.87412 12.5506 2.07581 12.8109 2.29547L12.8333 2.31497C12.95 2.41441 13.0637 2.51737 13.1741 2.6237C13.188 2.63737 13.2026 2.65037 13.2165 2.66433C13.3322 2.77731 13.4444 2.89386 13.5529 3.0138C13.5619 3.02397 13.5704 3.03463 13.5794 3.0448C13.6746 3.15143 13.7661 3.26183 13.8549 3.3741C13.8763 3.40077 13.8977 3.42747 13.9184 3.45417C14.0147 3.5789 14.1079 3.70583 14.196 3.83683L13.6415 6.19363L10.9138 7.10297L8.2862 5.00053L8.28553 2.30637ZM2.08137 3.4557C2.10207 3.42903 2.12317 3.40237 2.14453 3.37577C2.23219 3.26458 2.32299 3.15591 2.4168 3.04987C2.42697 3.03867 2.43633 3.0272 2.44637 3.016C2.5541 2.89586 2.66582 2.77935 2.78133 2.66667C2.79463 2.65367 2.8079 2.64 2.82183 2.628C2.93138 2.52235 3.04406 2.42 3.15973 2.3211L3.1864 2.2987C3.44445 2.08065 3.71686 1.8802 4.0018 1.6987L4.0122 1.69203C4.30331 1.50732 4.60682 1.34291 4.92057 1.2L7.71447 2.30637V4.99973L5.08673 7.10183L2.359 6.19417L1.80457 3.83737C1.89296 3.70738 1.98527 3.5801 2.08137 3.4557ZM1.76003 12.092C1.68157 11.9724 1.60659 11.8506 1.53517 11.7267L1.51783 11.6967C1.44675 11.5733 1.37944 11.4478 1.316 11.3203L1.3138 11.3163C1.18018 11.0481 1.06291 10.772 0.962633 10.4896V10.487C0.915233 10.3536 0.872 10.2171 0.832033 10.0797L0.817567 10.029C0.780834 9.8995 0.747666 9.76899 0.7181 9.63763C0.7155 9.62473 0.712233 9.6125 0.709633 9.59973C0.644152 9.30184 0.597096 9.00019 0.568733 8.6965L2.19673 6.74297L4.9056 7.64583L5.6918 10.7904L4.4 12.5091L1.76003 12.092ZM9.77577 15.2514C9.64243 15.2845 9.5056 15.313 9.36877 15.3387C9.3496 15.3424 9.3301 15.3456 9.31093 15.3491C9.1944 15.3699 9.07657 15.3878 8.95847 15.4023C8.92697 15.4064 8.8957 15.4107 8.86433 15.4145C8.75467 15.4272 8.644 15.4368 8.53307 15.4448C8.49817 15.4471 8.46367 15.4507 8.42877 15.4529C8.28697 15.4616 8.144 15.4667 8 15.4667C7.8681 15.4667 7.737 15.4632 7.60667 15.4562C7.5909 15.4562 7.57577 15.4536 7.56 15.4525C7.444 15.4458 7.3285 15.4371 7.21327 15.4259L7.2 15.4234C6.9475 15.396 6.69653 15.356 6.44803 15.3035L4.8707 12.8338L6.1422 11.1384H9.8578L11.1501 12.8451L9.77577 15.2514ZM15.2923 9.6C15.2896 9.61277 15.2865 9.62513 15.2837 9.6379C15.254 9.76922 15.2208 9.89973 15.1842 10.0293L15.1699 10.08C15.1302 10.2169 15.0866 10.3527 15.0392 10.4872V10.4898C14.939 10.7723 14.8217 11.0483 14.688 11.3165L14.6858 11.3206C14.6222 11.448 14.5549 11.5735 14.484 11.697L14.4667 11.727C14.3958 11.851 14.3209 11.9726 14.2422 12.0918L11.6112 12.5066L10.3104 10.7893L11.0962 7.64557L13.8051 6.7427L15.4331 8.69623C15.4048 9.0001 15.3578 9.30193 15.2923 9.6Z" fill="#15A34A"/>
</svg>
