<svg width="180" height="66" viewBox="0 0 180 66" fill="none" xmlns="http://www.w3.org/2000/svg">
<g filter="url(#filter0_d_405_282)">
<rect x="13" y="9" width="40" height="40" rx="20" fill="white" shape-rendering="crispEdges"/>
<rect x="13.5" y="9.5" width="39" height="39" rx="19.5" stroke="#F2F2F2" shape-rendering="crispEdges"/>
<path d="M33.0007 21C30.8281 21 30.5554 21.0095 29.702 21.0483C28.8504 21.0873 28.269 21.2222 27.7604 21.42C27.2342 21.6243 26.7879 21.8977 26.3432 22.3425C25.8982 22.7872 25.6248 23.2335 25.4198 23.7595C25.2215 24.2683 25.0865 24.8498 25.0482 25.7012C25.01 26.5545 25 26.8273 25 29C25 31.1727 25.0097 31.4445 25.0483 32.2978C25.0875 33.1495 25.2223 33.7308 25.42 34.2395C25.6245 34.7657 25.8978 35.212 26.3427 35.6567C26.7872 36.1017 27.2335 36.3757 27.7594 36.58C28.2684 36.7778 28.8499 36.9127 29.7014 36.9517C30.5547 36.9905 30.8272 37 32.9998 37C35.1726 37 35.4444 36.9905 36.2978 36.9517C37.1495 36.9127 37.7315 36.7778 38.2405 36.58C38.7665 36.3757 39.2121 36.1017 39.6567 35.6567C40.1017 35.212 40.375 34.7657 40.58 34.2397C40.7767 33.7308 40.9117 33.1493 40.9517 32.298C40.99 31.4447 41 31.1727 41 29C41 26.8273 40.99 26.5547 40.9517 25.7013C40.9117 24.8497 40.7767 24.2683 40.58 23.7597C40.375 23.2335 40.1017 22.7872 39.6567 22.3425C39.2116 21.8975 38.7666 21.6242 38.24 21.42C37.73 21.2222 37.1483 21.0873 36.2966 21.0483C35.4433 21.0095 35.1716 21 32.9982 21H33.0007ZM32.2831 22.4417C32.4961 22.4413 32.7337 22.4417 33.0007 22.4417C35.1368 22.4417 35.3899 22.4493 36.2335 22.4877C37.0135 22.5233 37.4368 22.6537 37.7188 22.7632C38.0921 22.9082 38.3583 23.0815 38.6381 23.3615C38.9181 23.6415 39.0915 23.9082 39.2368 24.2815C39.3463 24.5632 39.4768 24.9865 39.5123 25.7665C39.5507 26.6098 39.559 26.8632 39.559 28.9982C39.559 31.1332 39.5507 31.3865 39.5123 32.2298C39.4767 33.0098 39.3463 33.4332 39.2368 33.7148C39.0918 34.0882 38.9181 34.354 38.6381 34.6338C38.3581 34.9138 38.0923 35.0872 37.7188 35.2322C37.4371 35.3422 37.0135 35.4722 36.2335 35.5078C35.3901 35.5462 35.1368 35.5545 33.0007 35.5545C30.8646 35.5545 30.6114 35.5462 29.768 35.5078C28.988 35.4718 28.5647 35.3415 28.2825 35.232C27.9092 35.087 27.6425 34.9137 27.3625 34.6337C27.0825 34.3537 26.9092 34.0877 26.7639 33.7142C26.6544 33.4325 26.5238 33.0092 26.4883 32.2292C26.45 31.3858 26.4423 31.1325 26.4423 28.9962C26.4423 26.8598 26.45 26.6078 26.4883 25.7645C26.524 24.9845 26.6544 24.5612 26.7639 24.2792C26.9089 23.9058 27.0825 23.6392 27.3625 23.3592C27.6425 23.0792 27.9092 22.9058 28.2825 22.7605C28.5645 22.6505 28.988 22.5205 29.768 22.4847C30.5061 22.4513 30.7921 22.4413 32.2831 22.4397V22.4417ZM37.2711 23.77C36.7411 23.77 36.3111 24.1995 36.3111 24.7297C36.3111 25.2597 36.7411 25.6897 37.2711 25.6897C37.8011 25.6897 38.2311 25.2597 38.2311 24.7297C38.2311 24.1997 37.8011 23.7697 37.2711 23.7697V23.77ZM33.0007 24.8917C30.7319 24.8917 28.8924 26.7312 28.8924 29C28.8924 31.2688 30.7319 33.1075 33.0007 33.1075C35.2696 33.1075 37.1085 31.2688 37.1085 29C37.1085 26.7312 35.2696 24.8917 33.0007 24.8917ZM33.0007 26.3333C34.4734 26.3333 35.6674 27.5272 35.6674 29C35.6674 30.4727 34.4734 31.6667 33.0007 31.6667C31.5279 31.6667 30.3341 30.4727 30.3341 29C30.3341 27.5272 31.5279 26.3333 33.0007 26.3333Z" fill="url(#paint0_radial_405_282)"/>
</g>
<path d="M74.124 23.476C75.54 23.476 76.776 23.746 77.832 24.286C78.888 24.814 79.698 25.564 80.262 26.536C80.838 27.496 81.126 28.606 81.126 29.866C81.126 30.886 80.946 31.834 80.586 32.71C80.238 33.586 79.716 34.288 79.02 34.816C78.336 35.332 77.52 35.59 76.572 35.59C75.936 35.59 75.408 35.464 74.988 35.212C74.58 34.96 74.304 34.606 74.16 34.15C73.824 34.618 73.392 34.984 72.864 35.248C72.336 35.5 71.76 35.626 71.136 35.626C70.248 35.626 69.546 35.362 69.03 34.834C68.526 34.294 68.274 33.562 68.274 32.638C68.274 31.762 68.454 30.94 68.814 30.172C69.174 29.392 69.672 28.768 70.308 28.3C70.944 27.832 71.658 27.598 72.45 27.598C73.458 27.598 74.142 27.958 74.502 28.678L74.664 27.724H77.148L76.356 32.242C76.32 32.458 76.302 32.65 76.302 32.818C76.302 33.346 76.536 33.61 77.004 33.61C77.58 33.61 78.018 33.244 78.318 32.512C78.63 31.768 78.786 30.916 78.786 29.956C78.786 28.576 78.348 27.496 77.472 26.716C76.608 25.936 75.39 25.546 73.818 25.546C72.474 25.546 71.25 25.87 70.146 26.518C69.054 27.166 68.196 28.054 67.572 29.182C66.948 30.298 66.636 31.528 66.636 32.872C66.636 34.324 67.056 35.452 67.896 36.256C68.748 37.06 69.936 37.462 71.46 37.462C72.648 37.462 73.71 37.246 74.646 36.814L75.132 38.776C73.956 39.292 72.636 39.55 71.172 39.55C69.804 39.55 68.598 39.286 67.554 38.758C66.522 38.23 65.724 37.48 65.16 36.508C64.596 35.536 64.314 34.402 64.314 33.106C64.314 31.294 64.74 29.656 65.592 28.192C66.444 26.716 67.614 25.564 69.102 24.736C70.602 23.896 72.276 23.476 74.124 23.476ZM72.144 33.412C72.48 33.412 72.792 33.31 73.08 33.106C73.38 32.902 73.614 32.632 73.782 32.296C73.962 31.948 74.052 31.576 74.052 31.18C74.052 30.772 73.938 30.442 73.71 30.19C73.482 29.926 73.17 29.794 72.774 29.794C72.246 29.794 71.808 30.022 71.46 30.478C71.112 30.934 70.938 31.474 70.938 32.098C70.938 32.494 71.04 32.812 71.244 33.052C71.448 33.292 71.748 33.412 72.144 33.412ZM92.6474 22.864V25.33H89.2994V35.5H86.2214V25.33H82.8734V22.864H92.6474ZM100.366 25.348C101.518 25.348 102.442 25.732 103.138 26.5C103.834 27.256 104.182 28.3 104.182 29.632V35.5H101.122V30.046C101.122 29.374 100.948 28.852 100.6 28.48C100.252 28.108 99.7842 27.922 99.1962 27.922C98.6082 27.922 98.1402 28.108 97.7922 28.48C97.4442 28.852 97.2702 29.374 97.2702 30.046V35.5H94.1922V22.18H97.2702V26.806C97.5822 26.362 98.0082 26.008 98.5482 25.744C99.0882 25.48 99.6942 25.348 100.366 25.348ZM115.789 30.316C115.789 30.604 115.771 30.904 115.735 31.216H108.769C108.817 31.84 109.015 32.32 109.363 32.656C109.723 32.98 110.161 33.142 110.677 33.142C111.445 33.142 111.979 32.818 112.279 32.17H115.555C115.387 32.83 115.081 33.424 114.637 33.952C114.205 34.48 113.659 34.894 112.999 35.194C112.339 35.494 111.601 35.644 110.785 35.644C109.801 35.644 108.925 35.434 108.157 35.014C107.389 34.594 106.789 33.994 106.357 33.214C105.925 32.434 105.709 31.522 105.709 30.478C105.709 29.434 105.919 28.522 106.339 27.742C106.771 26.962 107.371 26.362 108.139 25.942C108.907 25.522 109.789 25.312 110.785 25.312C111.757 25.312 112.621 25.516 113.377 25.924C114.133 26.332 114.721 26.914 115.141 27.67C115.573 28.426 115.789 29.308 115.789 30.316ZM112.639 29.506C112.639 28.978 112.459 28.558 112.099 28.246C111.739 27.934 111.289 27.778 110.749 27.778C110.233 27.778 109.795 27.928 109.435 28.228C109.087 28.528 108.871 28.954 108.787 29.506H112.639ZM128.357 22.864V35.5H125.279V30.298H120.491V35.5H117.413V22.864H120.491V27.814H125.279V22.864H128.357ZM132.127 24.412C131.587 24.412 131.143 24.256 130.795 23.944C130.459 23.62 130.291 23.224 130.291 22.756C130.291 22.276 130.459 21.88 130.795 21.568C131.143 21.244 131.587 21.082 132.127 21.082C132.655 21.082 133.087 21.244 133.423 21.568C133.771 21.88 133.945 22.276 133.945 22.756C133.945 23.224 133.771 23.62 133.423 23.944C133.087 24.256 132.655 24.412 132.127 24.412ZM133.657 25.456V35.5H130.579V25.456H133.657ZM141.485 32.89V35.5H139.919C138.803 35.5 137.933 35.23 137.309 34.69C136.685 34.138 136.373 33.244 136.373 32.008V28.012H135.149V25.456H136.373V23.008H139.451V25.456H141.467V28.012H139.451V32.044C139.451 32.344 139.523 32.56 139.667 32.692C139.811 32.824 140.051 32.89 140.387 32.89H141.485ZM154.144 22.864V35.5H151.066V30.298H146.278V35.5H143.2V22.864H146.278V27.814H151.066V22.864H154.144ZM166.284 25.456V35.5H163.206V34.132C162.894 34.576 162.468 34.936 161.928 35.212C161.4 35.476 160.812 35.608 160.164 35.608C159.396 35.608 158.718 35.44 158.13 35.104C157.542 34.756 157.086 34.258 156.762 33.61C156.438 32.962 156.276 32.2 156.276 31.324V25.456H159.336V30.91C159.336 31.582 159.51 32.104 159.858 32.476C160.206 32.848 160.674 33.034 161.262 33.034C161.862 33.034 162.336 32.848 162.684 32.476C163.032 32.104 163.206 31.582 163.206 30.91V25.456H166.284ZM171.573 26.878C171.861 26.41 172.275 26.032 172.815 25.744C173.355 25.456 173.973 25.312 174.669 25.312C175.497 25.312 176.247 25.522 176.919 25.942C177.591 26.362 178.119 26.962 178.503 27.742C178.899 28.522 179.097 29.428 179.097 30.46C179.097 31.492 178.899 32.404 178.503 33.196C178.119 33.976 177.591 34.582 176.919 35.014C176.247 35.434 175.497 35.644 174.669 35.644C173.961 35.644 173.343 35.506 172.815 35.23C172.287 34.942 171.873 34.564 171.573 34.096V35.5H168.495V22.18H171.573V26.878ZM175.965 30.46C175.965 29.692 175.749 29.092 175.317 28.66C174.897 28.216 174.375 27.994 173.751 27.994C173.139 27.994 172.617 28.216 172.185 28.66C171.765 29.104 171.555 29.71 171.555 30.478C171.555 31.246 171.765 31.852 172.185 32.296C172.617 32.74 173.139 32.962 173.751 32.962C174.363 32.962 174.885 32.74 175.317 32.296C175.749 31.84 175.965 31.228 175.965 30.46Z" fill="#0F351D"/>
<defs>
<filter id="filter0_d_405_282" x="0" y="0" width="66" height="66" filterUnits="userSpaceOnUse" color-interpolation-filters="sRGB">
<feFlood flood-opacity="0" result="BackgroundImageFix"/>
<feColorMatrix in="SourceAlpha" type="matrix" values="0 0 0 0 0 0 0 0 0 0 0 0 0 0 0 0 0 0 127 0" result="hardAlpha"/>
<feOffset dy="4"/>
<feGaussianBlur stdDeviation="6.5"/>
<feComposite in2="hardAlpha" operator="out"/>
<feColorMatrix type="matrix" values="0 0 0 0 0 0 0 0 0 0 0 0 0 0 0 0 0 0 0.05 0"/>
<feBlend mode="normal" in2="BackgroundImageFix" result="effect1_dropShadow_405_282"/>
<feBlend mode="normal" in="SourceGraphic" in2="effect1_dropShadow_405_282" result="shape"/>
</filter>
<radialGradient id="paint0_radial_405_282" cx="0" cy="0" r="1" gradientUnits="userSpaceOnUse" gradientTransform="translate(29.25 38.2323) rotate(-90) scale(15.8572 14.7484)">
<stop stop-color="#FFDD55"/>
<stop offset="0.1" stop-color="#FFDD55"/>
<stop offset="0.5" stop-color="#FF543E"/>
<stop offset="1" stop-color="#C837AB"/>
</radialGradient>
</defs>
</svg>
