<svg width="19" height="16" viewBox="0 0 19 16" fill="none" xmlns="http://www.w3.org/2000/svg">
<path d="M6.25195 3.01353C6.38733 3.05569 6.52787 3.07889 6.66958 3.08246C6.93398 2.64915 7.42668 2.43604 7.90227 2.51066C8.02459 2.35913 8.11703 2.18562 8.17466 1.99939C8.42644 1.18652 7.97404 0.32263 7.16402 0.0699694C6.354 -0.182877 5.49321 0.271129 5.24127 1.08396C4.98934 1.89679 5.44192 2.76072 6.25195 3.01353ZM13.7586 1.08441C13.5068 0.271576 12.6459 -0.18243 11.8359 0.0702673C11.0258 0.322928 10.5734 1.18681 10.8252 1.99965C11.0772 2.81248 11.9379 3.26649 12.7479 3.01383C13.558 2.76098 14.0105 1.89724 13.7586 1.08441Z" fill="#15A34A"/>
<path d="M18.92 14.7447L17.6032 11.8476V9.0944L16.2141 4.6462C15.8075 3.42069 14.4448 2.80131 13.2581 3.30459L12.6684 3.55464C12.3761 3.67652 12.239 3.88207 12.239 3.88207L10.3973 4.45156L8.05654 3.11694C7.72226 2.92655 7.29751 3.04396 7.10766 3.37921C6.9178 3.71447 7.0347 4.14073 7.36898 4.33128L9.27083 5.41565L9.27547 5.41524C9.71266 5.37785 10.1155 5.57596 10.3602 5.90429C10.5071 5.89468 10.3814 5.9108 12.712 5.19717L12.1684 5.514L11.3442 6.69414L10.6001 6.55301C10.6407 7.13139 10.2745 7.64662 9.74253 7.81185L11.5271 8.15019C11.6586 8.17511 11.7945 8.16144 11.9185 8.11082C12.0425 8.0602 12.1493 7.97478 12.2261 7.8648L12.8973 6.90387L13.7119 8.83794L11.7422 11.2447C11.65 11.3572 11.5869 11.4908 11.5586 11.6336L10.899 14.9386C10.8031 15.4189 11.1135 15.8864 11.5921 15.9825C12.0686 16.0784 12.5362 15.7693 12.6325 15.2869L13.2487 12.1993L15.0006 10.0585L15.8353 9.95683V12.0403C15.8353 12.1672 15.8626 12.2928 15.915 12.4083L17.3116 15.4809C17.5139 15.9258 18.0378 16.1233 18.4826 15.9197C18.9268 15.7165 19.1227 15.1904 18.92 14.7447H18.92Z" fill="#15A34A"/>
<path d="M6.19683 7.61228L9.4387 7.33475C9.82167 7.30186 10.1056 6.96382 10.0729 6.57952C10.0402 6.19533 9.70311 5.91035 9.3204 5.94312L6.54228 6.18107L5.73081 4.60531L6.61635 5.64287L6.63446 5.64142L6.91048 4.98599C6.94736 4.89835 6.97274 4.80627 6.986 4.71207C6.64259 4.45825 6.46342 4.04889 6.49155 3.63887C6.36048 3.55549 6.29918 3.54547 5.74194 3.30447C4.55634 2.80157 3.1929 3.41953 2.78581 4.64604C1.97694 7.15351 1.3967 9.09439 1.3967 9.09439V11.8475L0.0798719 14.7447C-0.122634 15.1904 0.0731922 15.7165 0.517391 15.9197C0.962407 16.1235 1.48628 15.9257 1.68834 15.4809L3.08488 12.4083C3.13738 12.2927 3.16457 12.1672 3.16459 12.0403V9.95679L3.99929 10.0585L5.75122 12.1993L6.36761 15.287C6.46357 15.768 6.92974 16.0785 7.40782 15.9826C7.88649 15.8862 8.19684 15.4189 8.10102 14.9386L7.44129 11.6335C7.41287 11.4908 7.34984 11.3573 7.25779 11.2447L5.28795 8.83794L5.59655 8.10539C5.32535 8.00067 5.11457 7.76634 5.04603 7.47204L4.55244 5.35938L5.51944 7.23729C5.5827 7.36005 5.68083 7.4612 5.80142 7.52795C5.922 7.59471 6.05961 7.62405 6.19683 7.61228Z" fill="#15A34A"/>
</svg>
