<svg width="18" height="23" viewBox="0 0 18 23" fill="none" xmlns="http://www.w3.org/2000/svg">
<path d="M9.56641 21.8242L9 22.2139L8.43359 21.8242L9 21L9.56641 21.8242ZM16 9C16 7.14348 15.2629 5.36256 13.9502 4.0498C12.7194 2.819 11.077 2.09452 9.34668 2.00879L9 2C7.14348 2 5.36256 2.73705 4.0498 4.0498C2.73705 5.36256 2 7.14348 2 9C2 11.8627 3.78237 14.6234 5.73828 16.7627C6.69837 17.8128 7.66172 18.6708 8.38574 19.2666C8.61859 19.4582 8.82649 19.6212 9 19.7549C9.17351 19.6212 9.38141 19.4582 9.61426 19.2666C10.3383 18.6708 11.3016 17.8128 12.2617 16.7627C14.2176 14.6234 16 11.8627 16 9ZM18 9C18 12.6373 15.7823 15.8766 13.7383 18.1123C12.6984 19.2497 11.6617 20.173 10.8857 20.8115C10.497 21.1314 10.1714 21.3812 9.94141 21.5527C9.82637 21.6385 9.73466 21.7044 9.6709 21.75C9.63911 21.7727 9.61427 21.7904 9.59668 21.8027L9.56934 21.8223L9.56738 21.8232L9 21L8.43262 21.8232L8.43066 21.8223L8.40332 21.8027C8.38573 21.7904 8.36089 21.7727 8.3291 21.75C8.26534 21.7044 8.17363 21.6385 8.05859 21.5527C7.82857 21.3812 7.50299 21.1314 7.11426 20.8115C6.33831 20.173 5.30158 19.2497 4.26172 18.1123C2.21766 15.8766 0 12.6373 0 9C0 6.61305 0.947915 4.32357 2.63574 2.63574C4.32357 0.947915 6.61305 0 9 0C11.3869 0 13.6764 0.947915 15.3643 2.63574C17.0521 4.32357 18 6.61305 18 9Z" fill="white"/>
<path d="M11 9C11 8.46957 10.7891 7.96101 10.4141 7.58594C10.039 7.21086 9.53043 7 9 7C8.46957 7 7.96101 7.21086 7.58594 7.58594C7.21086 7.96101 7 8.46957 7 9C7 9.53043 7.21087 10.039 7.58594 10.4141C7.96101 10.7891 8.46957 11 9 11C9.53043 11 10.039 10.7891 10.4141 10.4141C10.7891 10.039 11 9.53043 11 9ZM13 9C13 10.0609 12.5783 11.078 11.8281 11.8281C11.078 12.5783 10.0609 13 9 13C7.93913 13 6.92202 12.5783 6.17188 11.8281C5.42173 11.078 5 10.0609 5 9C5 7.93913 5.42173 6.92202 6.17188 6.17188C6.92202 5.42173 7.93913 5 9 5C10.0609 5 11.078 5.42173 11.8281 6.17188C12.5783 6.92202 13 7.93913 13 9Z" fill="white"/>
</svg>
