<svg width="8" height="12" viewBox="0 0 8 12" fill="none" xmlns="http://www.w3.org/2000/svg">
<path d="M1.7158 0.294092L6.7158 5.29409C6.80953 5.38705 6.88392 5.49766 6.93469 5.61951C6.98546 5.74137 7.0116 5.87208 7.0116 6.00409C7.0116 6.1361 6.98546 6.26681 6.93469 6.38867C6.88392 6.51053 6.80953 6.62113 6.7158 6.71409L1.7158 11.7141C1.62284 11.8078 1.51223 11.8822 1.39038 11.933C1.26852 11.9838 1.13781 12.0099 1.0058 12.0099C0.873786 12.0099 0.743081 11.9838 0.621222 11.933C0.499362 11.8822 0.388761 11.8078 0.295798 11.7141C0.20207 11.6211 0.127676 11.5105 0.0769072 11.3887C0.0261385 11.2668 0 11.1361 0 11.0041C0 10.8721 0.0261385 10.7414 0.0769072 10.6195C0.127676 10.4977 0.20207 10.3871 0.295798 10.2941L4.5958 6.00409L0.295798 1.71409C0.107495 1.52579 0.00170708 1.27039 0.00170708 1.00409C0.00170708 0.872233 0.027678 0.741665 0.0781384 0.619843C0.128599 0.498021 0.20256 0.38733 0.295798 0.294092C0.484102 0.105788 0.739497 0 1.0058 0C1.13766 0 1.26823 0.0259719 1.39005 0.0764322C1.51187 0.126893 1.62256 0.200853 1.7158 0.294092Z" fill="#0F351D"/>
</svg>
