<svg width="17" height="16" viewBox="0 0 17 16" fill="none" xmlns="http://www.w3.org/2000/svg">
<path d="M3.92842 4.65304C3.92175 3.90228 3.97729 3.18004 4.19782 2.68232C5.29928 0.196334 7.63504 0.00321237 8.32469 0.00321237C8.43905 0.00321237 8.55346 0.000910951 8.66787 0C9.35913 0 11.7 0.193506 12.8021 2.68083C13.1697 3.51062 13.0787 4.96478 13.0055 6.1332L13.0024 6.18402C12.9923 6.34674 12.9825 6.50486 12.9742 6.65627C12.9918 6.6743 13.1327 6.8109 13.451 6.82322H13.4514C13.6932 6.81387 13.9713 6.73625 14.2763 6.59241C14.3658 6.55041 14.4651 6.54154 14.5327 6.54154C14.636 6.54154 14.7406 6.56163 14.8275 6.59817L14.8328 6.60032C15.0796 6.68835 15.2412 6.86249 15.2447 7.04439C15.2479 7.21569 15.118 7.4733 14.4806 7.72674C14.4146 7.75287 14.3301 7.77986 14.2407 7.80839C13.8763 7.9248 13.3266 8.10042 13.1581 8.50033C13.0403 8.77932 13.1536 9.0398 13.2498 9.30053C13.2955 9.40778 14.3964 11.9349 16.8545 12.3426C16.9934 12.3656 17.0271 12.5263 16.98 12.635C16.8786 12.8738 16.4215 13.2122 14.8226 13.4609C14.692 13.4811 14.6413 13.6524 14.5634 14.0117C14.535 14.1424 14.5063 14.2709 14.4668 14.4059C14.4328 14.5232 14.3602 14.578 14.2381 14.578H14.2183C14.1336 14.578 14.0131 14.5627 13.8605 14.5326C13.5898 14.4792 13.2863 14.4301 12.9001 14.4301C12.6747 14.4301 12.4413 14.45 12.2068 14.489C11.7271 14.5695 11.3199 14.859 10.8888 15.1657C10.2621 15.6118 9.56161 16 8.5536 16C7.57489 16 6.89834 15.7261 6.11229 15.1667C5.68042 14.8595 5.27284 14.5695 4.79263 14.489C4.55833 14.45 4.32509 14.4301 4.0997 14.4301C3.69365 14.4301 3.37333 14.4932 3.13946 14.5393C2.99733 14.5673 2.87473 14.5913 2.78156 14.5913C2.68421 14.5913 2.57871 14.5701 2.53289 14.4125C2.49302 14.2759 2.46425 14.1436 2.43653 14.0156C2.36508 13.6862 2.3144 13.4837 2.17723 13.4625C0.578881 13.214 0.121435 12.8751 0.0194103 12.6347C-0.0262676 12.5259 0.00593105 12.3658 0.145299 12.343C2.60233 11.9357 3.70413 9.40788 3.7499 9.30053C3.85583 9.04886 3.95543 8.7703 3.84164 8.50042C3.67302 8.10042 3.12313 7.92461 2.75908 7.80839C2.67001 7.78 2.58556 7.7532 2.51898 7.72674C1.79261 7.43768 1.73216 7.14095 1.7607 6.98973C1.80937 6.73208 2.15151 6.55247 2.42815 6.55247C2.50402 6.55247 2.5708 6.56599 2.62696 6.59241C2.9537 6.74651 3.2482 6.82461 3.50231 6.82461C3.8534 6.82461 4.00668 6.67608 4.02539 6.65661L3.92842 4.65304Z" fill="white"/>
</svg>
