<svg width="16" height="16" viewBox="0 0 16 16" fill="none" xmlns="http://www.w3.org/2000/svg">
<path d="M8 0C6.41775 0 4.87103 0.469192 3.55544 1.34824C2.23985 2.22729 1.21447 3.47672 0.608967 4.93853C0.00346628 6.40034 -0.15496 8.00887 0.153721 9.56072C0.462403 11.1126 1.22433 12.538 2.34315 13.6569C3.46197 14.7757 4.88743 15.5376 6.43928 15.8463C7.99113 16.155 9.59966 15.9965 11.0615 15.391C12.5233 14.7855 13.7727 13.7602 14.6518 12.4446C15.5308 11.129 16 9.58225 16 8C15.9978 5.87895 15.1542 3.84542 13.6544 2.34562C12.1546 0.845814 10.121 0.00223986 8 0ZM14.7408 7.38461H12.1054C12.1015 6.24343 11.854 5.11622 11.3793 4.07842C10.9047 3.04063 10.2139 2.11617 9.35308 1.36692C10.7776 1.65988 12.0702 2.40292 13.0403 3.48642C14.0103 4.56992 14.6065 5.93652 14.7408 7.38461ZM1.57923 10.1438C1.11846 8.76418 1.11462 7.27276 1.56827 5.89074C2.02192 4.50873 2.90891 3.30972 4.09769 2.47154L5.41462 4.75231C4.4282 5.32597 3.57573 6.10376 2.91427 7.03359C2.25282 7.96343 1.79765 9.02384 1.57923 10.1438ZM2.68462 12.1869C2.58737 10.9183 2.84963 9.64793 3.44134 8.52152C4.03304 7.39512 4.93022 6.45829 6.03 5.81846L7.28923 8L4.09769 13.5285C3.56486 13.1512 3.08898 12.6995 2.68462 12.1869ZM14.2877 10.5062C13.2376 11.226 12.0058 11.6351 10.7338 11.6865C9.4617 11.738 8.20091 11.4296 7.09616 10.7969L8.35539 8.61538H14.74C14.6819 9.26427 14.5295 9.90122 14.2877 10.5062Z" fill="#15A34A"/>
</svg>
