<svg width="18" height="12" viewBox="0 0 18 12" fill="none" xmlns="http://www.w3.org/2000/svg">
<path d="M16.9711 1.87746C16.8731 1.51422 16.6799 1.18273 16.4108 0.916205C16.1417 0.649678 15.8061 0.457476 15.4379 0.358862C14.0886 -1.30426e-07 8.66667 0 8.66667 0C8.66667 0 3.24474 -1.30426e-07 1.89459 0.358862C1.52646 0.45761 1.19114 0.649871 0.922204 0.916389C0.65327 1.18291 0.460166 1.51433 0.362231 1.87746C0.112515 3.2418 -0.00858607 4.62596 0.000472937 6.01225C-0.00858607 7.39855 0.112515 8.7827 0.362231 10.147C0.461011 10.5071 0.654817 10.835 0.923959 11.0974C1.1931 11.3598 1.52799 11.5474 1.89459 11.6411C3.24652 12 8.66667 12 8.66667 12C8.66667 12 14.0886 12 15.4387 11.6411C15.8053 11.5474 16.1402 11.3598 16.4094 11.0974C16.6785 10.835 16.8723 10.5071 16.9711 10.147C17.2208 8.7827 17.3419 7.39855 17.3329 6.01225C17.3419 4.62596 17.2208 3.2418 16.9711 1.87746V1.87746ZM6.89432 8.55055V3.47484L11.4274 6.01313L6.89432 8.55142V8.55055Z" fill="white"/>
</svg>
