<svg width="22" height="22" viewBox="0 0 22 22" fill="none" xmlns="http://www.w3.org/2000/svg">
<path d="M7 3C7 2.73478 6.89457 2.48051 6.70703 2.29297C6.54289 2.12883 6.32763 2.02757 6.09863 2.00488L6 2H3C2.73478 2 2.48051 2.10543 2.29297 2.29297C2.10543 2.48051 2 2.73478 2 3C2 7.50868 3.79137 11.8324 6.97949 15.0205C10.1676 18.2086 14.4913 20 19 20C19.2652 20 19.5195 19.8946 19.707 19.707C19.8946 19.5195 20 19.2652 20 19V16C20 15.7348 19.8946 15.4805 19.707 15.293C19.5195 15.1054 19.2652 15 19 15H16C15.8448 15 15.6916 15.036 15.5527 15.1055C15.4139 15.1749 15.2933 15.2762 15.2002 15.4004L15.1953 15.4072L14.8398 15.8701C14.5646 16.2317 14.1752 16.4894 13.7344 16.5996C13.2935 16.7097 12.828 16.6662 12.415 16.4766C12.4073 16.473 12.3992 16.4696 12.3916 16.4658C9.41572 15.0053 7.00728 12.6 5.54297 9.62598L5.54102 9.62207C5.33868 9.20694 5.28622 8.73455 5.39258 8.28516C5.49903 7.83567 5.75789 7.4366 6.125 7.15625L6.13184 7.15137L6.59961 6.7998C6.72381 6.70666 6.8251 6.58612 6.89453 6.44727C6.96396 6.30841 7 6.15525 7 6V3ZM16 10C16 8.93913 15.5783 7.92202 14.8281 7.17188C14.078 6.42173 13.0609 6 12 6C11.4477 6 11 5.55228 11 5C11 4.44772 11.4477 4 12 4C13.5913 4 15.117 4.63259 16.2422 5.75781C17.3674 6.88303 18 8.4087 18 10C18 10.5523 17.5523 11 17 11C16.4477 11 16 10.5523 16 10ZM20 10C20 7.87827 19.1575 5.84306 17.6572 4.34277C16.1569 2.84248 14.1217 2 12 2C11.4477 2 11 1.55228 11 1C11 0.447715 11.4477 0 12 0C14.6522 0 17.1959 1.05335 19.0713 2.92871C20.9467 4.80407 22 7.34784 22 10C22 10.5523 21.5523 11 21 11C20.4477 11 20 10.5523 20 10ZM9 6C9 6.46573 8.89188 6.92523 8.68359 7.3418C8.47531 7.75836 8.17239 8.12095 7.7998 8.40039L7.33789 8.74512C8.60317 11.3136 10.6816 13.3917 13.249 14.6582L13.5996 14.2002L13.709 14.0635C13.9712 13.7533 14.2938 13.4986 14.6582 13.3164C15.0748 13.1081 15.5343 13 16 13H19C19.7957 13 20.5585 13.3163 21.1211 13.8789C21.6837 14.4415 22 15.2043 22 16V19C22 19.7957 21.6837 20.5585 21.1211 21.1211C20.5585 21.6837 19.7957 22 19 22C13.9609 22 9.12862 19.9978 5.56543 16.4346C2.00224 12.8714 0 8.03911 0 3C0 2.20435 0.316297 1.44152 0.878906 0.878906C1.44152 0.316297 2.20435 0 3 0H6C6.79565 0 7.55848 0.316297 8.12109 0.878906C8.6837 1.44152 9 2.20435 9 3V6Z" fill="white"/>
</svg>
