<svg width="1336" height="156" viewBox="0 0 1336 156" fill="none" xmlns="http://www.w3.org/2000/svg">
<g opacity="0.1">
<path d="M1334.43 40.48C1332.82 49.5733 1329.08 57.2733 1323.21 63.58C1317.34 69.74 1310.3 73.8467 1302.09 75.9C1309.72 77.8067 1315.51 81.4733 1319.47 86.9C1323.58 92.18 1325.63 98.4133 1325.63 105.6C1325.63 107.947 1325.41 110.44 1324.97 113.08C1322.62 126.72 1316.24 137.28 1305.83 144.76C1295.56 152.093 1282 155.76 1265.13 155.76H1183.51L1211.01 0H1290.43C1304.51 0 1315.44 2.78667 1323.21 8.36C1331.13 13.7867 1335.09 21.78 1335.09 32.34C1335.09 34.8333 1334.87 37.5467 1334.43 40.48ZM1282.95 49.94C1283.1 49.2067 1283.17 48.2533 1283.17 47.08C1283.17 44.1467 1282.22 42.02 1280.31 40.7C1278.55 39.38 1275.76 38.72 1271.95 38.72H1253.03L1249.07 60.72H1267.99C1272.39 60.72 1275.84 59.84 1278.33 58.08C1280.82 56.32 1282.36 53.6067 1282.95 49.94ZM1276.35 105.82C1276.5 105.087 1276.57 104.133 1276.57 102.96C1276.57 97.3867 1272.83 94.6 1265.35 94.6H1243.13L1239.39 116.6H1261.61C1266.01 116.6 1269.38 115.793 1271.73 114.18C1274.22 112.42 1275.76 109.633 1276.35 105.82Z" fill="#99CA3C"/>
<path d="M1100.63 0L1085.23 87.78C1084.79 90.1267 1084.57 92.5467 1084.57 95.04C1084.57 100.027 1085.89 103.987 1088.53 106.92C1091.17 109.707 1095.35 111.1 1101.07 111.1C1108.11 111.1 1113.68 109.047 1117.79 104.94C1121.89 100.687 1124.61 94.9667 1125.93 87.78L1141.33 0H1189.95L1174.55 87.78C1171.91 103.033 1166.63 115.867 1158.71 126.28C1150.93 136.693 1141.33 144.467 1129.89 149.6C1118.59 154.733 1106.13 157.3 1092.49 157.3C1075.03 157.3 1061.1 152.753 1050.69 143.66C1040.27 134.42 1035.07 121.293 1035.07 104.28C1035.07 98.8533 1035.58 93.3533 1036.61 87.78L1052.01 0H1100.63Z" fill="#99CA3C"/>
<path d="M1030.91 0L1003.41 155.76H954.571L965.351 95.04H918.931L908.151 155.76H859.311L886.811 0H935.651L925.751 56.1H972.171L982.071 0H1030.91Z" fill="#99CA3C"/>
<path d="M836.182 0L829.362 38.72H788.002L767.322 155.76H718.482L739.162 38.72H698.242L705.062 0H836.182Z" fill="#99CA3C"/>
<path d="M691.804 0L664.304 155.76H615.464L642.964 0H691.804Z" fill="#99CA3C"/>
<path d="M620.99 0L593.49 155.76H544.65L555.43 95.04H509.01L498.23 155.76H449.39L476.89 0H525.73L515.83 56.1H562.25L572.15 0H620.99Z" fill="#99CA3C"/>
<path d="M359.281 38.72L355.981 58.08H404.381L397.781 94.82H349.381L345.421 116.82H400.421L393.601 155.76H289.761L317.261 0H421.101L414.281 38.72H359.281Z" fill="#99CA3C"/>
<path d="M295.286 0L267.786 155.76H218.946L229.726 95.04H183.306L172.526 155.76H123.686L151.186 0H200.026L190.126 56.1H236.546L246.446 0H295.286Z" fill="#99CA3C"/>
<path d="M137.94 0L131.12 38.72H89.76L69.08 155.76H20.24L40.92 38.72H0L6.82 0H137.94Z" fill="#99CA3C"/>
</g>
</svg>
