<svg width="956" height="216" viewBox="0 0 956 216" fill="none" xmlns="http://www.w3.org/2000/svg">
<rect width="956" height="216" fill="url(#paint0_linear_668_12)"/>
<g opacity="0.4">
<path d="M277.468 82.4269L256.653 197.629L220.505 197.484L228.664 152.575L194.307 152.437L186.148 197.346L150 197.202L170.815 82L206.963 82.1447L199.47 123.637L233.827 123.774L241.32 82.2822L277.468 82.4269Z" fill="white"/>
<path d="M329.88 82.6366L309.065 197.838L272.917 197.694L293.732 82.492L329.88 82.6366Z" fill="white"/>
<path d="M436.74 83.0643L431.577 111.702L400.965 111.58L385.313 198.143L349.164 197.999L364.817 111.435L334.531 111.314L339.693 82.6759L436.74 83.0643Z" fill="white"/>
<path d="M580.865 83.6412L560.05 198.843L523.902 198.698L532.06 153.789L497.703 153.652L489.545 198.561L453.397 198.416L474.212 83.2143L510.36 83.359L502.866 124.851L537.223 124.989L544.717 83.4965L580.865 83.6412Z" fill="white"/>
<path d="M632.463 83.8477L620.805 148.771C620.472 150.507 620.302 152.297 620.295 154.142C620.28 157.833 621.245 160.768 623.19 162.947C625.136 165.017 628.226 166.061 632.459 166.078C637.67 166.099 641.801 164.595 644.853 161.568C647.905 158.432 649.93 154.207 650.928 148.892L662.586 83.9683L698.572 84.1123L686.913 149.036C684.914 160.317 680.968 169.8 675.076 177.484C669.292 185.168 662.158 190.893 653.676 194.658C645.302 198.424 636.068 200.287 625.972 200.247C613.054 200.195 602.755 196.788 595.075 190.027C587.395 183.158 583.58 173.427 583.631 160.835C583.647 156.818 584.043 152.749 584.819 148.627L596.478 83.7037L632.463 83.8477Z" fill="white"/>
<path d="M805.39 114.501C804.169 121.226 801.378 126.914 797.017 131.565C792.657 136.107 787.434 139.125 781.349 140.621C786.988 142.054 791.265 144.785 794.18 148.814C797.204 152.734 798.705 157.353 798.684 162.672C798.677 164.409 798.507 166.254 798.173 168.207C796.396 178.295 791.643 186.092 783.913 191.597C776.293 196.995 766.241 199.668 753.757 199.618L693.347 199.376L714.162 84.1747L772.944 84.41C783.365 84.4517 791.444 86.5466 797.181 90.6946C803.026 94.7345 805.934 100.662 805.902 108.478C805.895 110.324 805.724 112.331 805.39 114.501ZM767.26 121.35C767.37 120.808 767.428 120.102 767.431 119.234C767.44 117.063 766.74 115.486 765.333 114.503C764.034 113.521 761.974 113.024 759.151 113.013L745.148 112.957L742.152 129.228L756.155 129.284C759.412 129.297 761.966 128.656 763.816 127.361C765.667 126.066 766.815 124.062 767.26 121.35ZM762.209 162.689C762.32 162.147 762.377 161.441 762.381 160.573C762.397 156.448 759.637 154.374 754.101 154.352L737.655 154.286L734.822 170.558L751.268 170.624C754.524 170.637 757.024 170.05 758.765 168.863C760.616 167.568 761.764 165.51 762.209 162.689Z" fill="white"/>
</g>
<defs>
<linearGradient id="paint0_linear_668_12" x1="922.583" y1="-30.2974" x2="532.371" y2="459.163" gradientUnits="userSpaceOnUse">
<stop stop-color="#98C83C"/>
<stop offset="1" stop-color="#FBD173"/>
</linearGradient>
</defs>
</svg>
