<svg width="700" height="666" viewBox="0 0 700 666" fill="none" xmlns="http://www.w3.org/2000/svg">
<path d="M400 0H700L300 666H0L400 0Z" fill="url(#paint0_linear_656_3)"/>
<g opacity="0.4">
<path d="M271.728 473.818L360.176 550.509L341.605 581.522L307.147 551.588L289.496 581.064L323.953 610.998L305.381 642.011L216.933 565.32L235.504 534.307L267.363 561.926L285.014 532.45L253.156 504.831L271.728 473.818Z" fill="white"/>
<path d="M298.655 428.852L387.104 505.543L368.532 536.556L280.083 459.865L298.655 428.852Z" fill="white"/>
<path d="M353.556 337.173L375.549 356.227L359.822 382.49L426.277 440.127L407.706 471.14L341.25 413.503L325.69 439.487L303.697 420.433L353.556 337.173Z" fill="white"/>
<path d="M427.603 213.522L516.052 290.213L497.48 321.226L463.023 291.292L445.371 320.768L479.829 350.702L461.257 381.715L372.808 305.024L391.38 274.011L423.238 301.63L440.89 272.154L409.031 244.535L427.603 213.522Z" fill="white"/>
<path d="M454.112 169.255L503.996 212.412C505.319 213.584 506.772 214.644 508.355 215.592C511.521 217.488 514.538 218.156 517.404 217.595C520.178 216.978 522.652 214.854 524.827 211.222C527.504 206.751 528.319 202.432 527.273 198.262C526.134 194.037 523.534 190.139 519.472 186.568L469.589 143.41L488.077 112.537L537.96 155.695C546.642 163.172 552.783 171.404 556.384 180.393C560.041 189.289 561.324 198.345 560.233 207.561C559.198 216.684 556.088 225.576 550.901 234.238C544.264 245.32 536.079 252.439 526.345 255.594C516.518 258.692 506.203 257.007 495.399 250.538C491.954 248.474 488.656 246.057 485.508 243.285L435.624 200.128L454.112 169.255Z" fill="white"/>
<path d="M568.723 36.1838C573.883 40.666 577.351 45.9689 579.124 52.0923C580.805 58.1599 580.736 64.1918 578.916 70.188C583.027 66.0702 587.559 63.7858 592.51 63.3347C597.425 62.7348 602.163 63.8012 606.727 66.534C608.217 67.4263 609.717 68.5141 611.226 69.7974C618.995 76.4742 623.274 84.541 624.064 93.9976C624.817 103.305 621.986 113.314 615.572 124.024L584.536 175.852L496.087 99.1613L526.287 48.7305C531.641 39.7899 537.566 33.9112 544.06 31.0945C550.518 28.1289 557.099 28.6539 563.805 32.6694C565.388 33.6175 567.027 34.789 568.723 36.1838ZM555.154 72.4702C554.744 72.0982 554.167 71.6892 553.422 71.243C551.559 70.1276 549.846 69.9243 548.283 70.633C546.775 71.2487 545.297 72.7672 543.847 75.1886L536.652 87.2026L549.116 98.0828L556.311 86.0688C557.984 83.2749 558.736 80.7517 558.566 78.4992C558.397 76.2467 557.259 74.237 555.154 72.4702ZM588.128 97.9099C587.718 97.5379 587.14 97.1288 586.395 96.6827C582.856 94.5634 579.664 95.8786 576.82 100.628L568.371 114.738L580.918 125.478L589.368 111.369C591.041 108.575 591.811 106.126 591.679 104.022C591.51 101.77 590.326 99.7325 588.128 97.9099Z" fill="white"/>
</g>
<defs>
<linearGradient id="paint0_linear_656_3" x1="414" y1="-127.715" x2="582.239" y2="553.595" gradientUnits="userSpaceOnUse">
<stop stop-color="#98C83C"/>
<stop offset="1" stop-color="#FBD173"/>
</linearGradient>
</defs>
</svg>
