<svg width="15" height="15" viewBox="0 0 15 15" fill="none" xmlns="http://www.w3.org/2000/svg">
<path fill-rule="evenodd" clip-rule="evenodd" d="M4.2447 0.045C5.01485 0.00818181 5.2604 0 7.22222 0C9.18404 0 9.4296 0.00886363 10.1991 0.045C10.9686 0.0811364 11.4938 0.208636 11.9534 0.393409C12.4347 0.582273 12.8713 0.8775 13.2324 1.25932C13.6001 1.63364 13.8837 2.08636 14.065 2.58682C14.2435 3.06409 14.3657 3.60955 14.4011 4.40727C14.4366 5.20841 14.4444 5.46341 14.4444 7.5C14.4444 9.53727 14.4359 9.79227 14.4011 10.592C14.3663 11.3898 14.2435 11.9352 14.065 12.4125C13.8837 12.913 13.5996 13.3665 13.2324 13.7414C12.8713 14.1232 12.4347 14.4177 11.9534 14.6059C11.4938 14.7914 10.9686 14.9182 10.2004 14.955C9.4296 14.9918 9.18404 15 7.22222 15C5.2604 15 5.01485 14.9911 4.2447 14.955C3.47652 14.9189 2.95126 14.7914 2.49167 14.6059C2.0097 14.4177 1.57301 14.1227 1.21202 13.7414C0.844593 13.3668 0.560257 12.9136 0.378838 12.4132C0.200909 11.9359 0.0787879 11.3905 0.0433333 10.5927C0.00787878 9.79159 0 9.53659 0 7.5C0 5.46273 0.00853534 5.20773 0.0433333 4.40864C0.0781313 3.60955 0.200909 3.06409 0.378838 2.58682C0.560525 2.08642 0.845078 1.63317 1.21268 1.25864C1.57316 0.87716 2.0094 0.581893 2.49101 0.393409C2.95061 0.208636 3.47586 0.0818182 4.24404 0.045H4.2447ZM10.1407 1.395C9.37904 1.35886 9.15056 1.35136 7.22222 1.35136C5.29389 1.35136 5.0654 1.35886 4.30379 1.395C3.59929 1.42841 3.21717 1.55045 2.96242 1.65341C2.62561 1.78977 2.38465 1.95136 2.13187 2.21386C1.89225 2.45594 1.70785 2.75065 1.59217 3.07636C1.49303 3.34091 1.37551 3.73773 1.34333 4.46932C1.30854 5.26023 1.30131 5.4975 1.30131 7.5C1.30131 9.5025 1.30854 9.73977 1.34333 10.5307C1.37551 11.2623 1.49303 11.6591 1.59217 11.9236C1.70773 12.2489 1.89222 12.5441 2.13187 12.7861C2.36495 13.035 2.64924 13.2266 2.96242 13.3466C3.21717 13.4495 3.59929 13.5716 4.30379 13.605C5.0654 13.6411 5.29323 13.6486 7.22222 13.6486C9.15121 13.6486 9.37904 13.6411 10.1407 13.605C10.8452 13.5716 11.2273 13.4495 11.482 13.3466C11.8188 13.2102 12.0598 13.0486 12.3126 12.7861C12.5522 12.5441 12.7367 12.2489 12.8523 11.9236C12.9514 11.6591 13.0689 11.2623 13.1011 10.5307C13.1359 9.73977 13.1431 9.5025 13.1431 7.5C13.1431 5.4975 13.1359 5.26023 13.1011 4.46932C13.0689 3.73773 12.9514 3.34091 12.8523 3.07636C12.721 2.72659 12.5654 2.47636 12.3126 2.21386C12.0794 1.96505 11.7957 1.77355 11.482 1.65341C11.2273 1.55045 10.8452 1.42841 10.1407 1.395V1.395ZM6.29975 9.81205C6.81493 10.0347 7.38858 10.0648 7.92273 9.89708C8.45688 9.72936 8.91839 9.37426 9.22843 8.89244C9.53847 8.41062 9.67781 7.83196 9.62266 7.2553C9.5675 6.67864 9.32127 6.13975 8.92601 5.73068C8.67404 5.46919 8.36938 5.26896 8.03396 5.14442C7.69853 5.01987 7.34069 4.97411 6.98618 5.01042C6.63168 5.04673 6.28934 5.16421 5.98381 5.35441C5.67828 5.5446 5.41716 5.80278 5.21924 6.11035C5.02132 6.41793 4.89154 6.76724 4.83923 7.13316C4.78692 7.49907 4.81338 7.87247 4.91672 8.22649C5.02005 8.5805 5.19769 8.90632 5.43684 9.18049C5.67598 9.45466 5.97069 9.67035 6.29975 9.81205ZM4.59727 4.77409C4.94199 4.41612 5.35122 4.13216 5.80161 3.93843C6.252 3.7447 6.73472 3.64498 7.22222 3.64498C7.70972 3.64498 8.19245 3.7447 8.64283 3.93843C9.09322 4.13216 9.50246 4.41612 9.84717 4.77409C10.1919 5.13206 10.4653 5.55704 10.6519 6.02475C10.8384 6.49246 10.9345 6.99375 10.9345 7.5C10.9345 8.00625 10.8384 8.50754 10.6519 8.97525C10.4653 9.44296 10.1919 9.86794 9.84717 10.2259C9.15099 10.9489 8.20677 11.355 7.22222 11.355C6.23768 11.355 5.29345 10.9489 4.59727 10.2259C3.90109 9.50295 3.50998 8.52241 3.50998 7.5C3.50998 6.47759 3.90109 5.49705 4.59727 4.77409V4.77409ZM11.7578 4.21909C11.8432 4.13541 11.9116 4.03478 11.9589 3.92316C12.0062 3.81155 12.0314 3.69121 12.0332 3.56927C12.0349 3.44733 12.013 3.32628 11.9689 3.21328C11.9247 3.10028 11.8592 2.99762 11.7761 2.91139C11.6931 2.82516 11.5942 2.75711 11.4854 2.71126C11.3766 2.66542 11.26 2.64271 11.1426 2.64449C11.0252 2.64627 10.9093 2.67249 10.8018 2.72161C10.6944 2.77073 10.5974 2.84175 10.5169 2.93045C10.3602 3.10297 10.2744 3.33213 10.2777 3.56927C10.281 3.80641 10.3732 4.03287 10.5347 4.20057C10.6962 4.36828 10.9143 4.46402 11.1426 4.46748C11.371 4.47093 11.5916 4.38183 11.7578 4.21909V4.21909Z" fill="white"/>
</svg>
