<svg width="15" height="15" viewBox="0 0 15 15" fill="none" xmlns="http://www.w3.org/2000/svg">
<path fill-rule="evenodd" clip-rule="evenodd" d="M5.29316 4.96541H7.93939V6.28354C8.32057 5.52544 9.29812 4.84429 10.7666 4.84429C13.5817 4.84429 14.25 6.35336 14.25 9.12214V14.25H11.4V9.7527C11.4 8.17594 11.0188 7.28674 10.0484 7.28674C8.70247 7.28674 8.14316 8.24505 8.14316 9.75199V14.25H5.29316V4.96541ZM0.406125 14.1289H3.25613V4.84429H0.406125V14.1289ZM3.66439 1.81688C3.66449 2.05576 3.61712 2.29228 3.52501 2.51269C3.43291 2.73311 3.29791 2.93302 3.12787 3.1008C2.78331 3.44324 2.31691 3.63493 1.83113 3.63375C1.34619 3.63342 0.880872 3.44223 0.5358 3.10151C0.366376 2.93316 0.231837 2.73302 0.139895 2.51258C0.0479523 2.29214 0.000412631 2.05572 0 1.81688C0 1.33451 0.192375 0.872813 0.536513 0.532238C0.881281 0.191063 1.3468 -0.000213188 1.83184 1.78313e-07C2.31776 1.78313e-07 2.78374 0.191663 3.12787 0.532238C3.4713 0.872813 3.66439 1.33451 3.66439 1.81688Z" fill="white"/>
</svg>
