<svg width="21" height="21" viewBox="0 0 21 21" fill="none" xmlns="http://www.w3.org/2000/svg">
<path d="M0 10.5C0 4.70101 4.70101 0 10.5 0C16.299 0 21 4.70101 21 10.5C21 16.299 16.299 21 10.5 21C4.70101 21 0 16.299 0 10.5Z" fill="white"/>
<path d="M8.70994 4.78915L13.7099 9.78915C13.8037 9.88211 13.8781 9.99271 13.9288 10.1146C13.9796 10.2364 14.0057 10.3671 14.0057 10.4991C14.0057 10.6312 13.9796 10.7619 13.9288 10.8837C13.8781 11.0056 13.8037 11.1162 13.7099 11.2091L8.70994 16.2091C8.61698 16.3029 8.50638 16.3773 8.38452 16.428C8.26266 16.4788 8.13195 16.5049 7.99994 16.5049C7.86793 16.5049 7.73722 16.4788 7.61536 16.428C7.4935 16.3773 7.3829 16.3029 7.28994 16.2091C7.19621 16.1162 7.12182 16.0056 7.07105 15.8837C7.02028 15.7619 6.99414 15.6312 6.99414 15.4991C6.99414 15.3671 7.02028 15.2364 7.07105 15.1146C7.12182 14.9927 7.19621 14.8821 7.28994 14.7891L11.5899 10.4991L7.28994 6.20915C7.10164 6.02084 6.99585 5.76545 6.99585 5.49915C6.99585 5.36729 7.02182 5.23672 7.07228 5.1149C7.12274 4.99308 7.1967 4.88239 7.28994 4.78915C7.47824 4.60084 7.73364 4.49506 7.99994 4.49506C8.1318 4.49506 8.26237 4.52103 8.38419 4.57149C8.50601 4.62195 8.6167 4.69591 8.70994 4.78915Z" fill="#15A34A"/>
</svg>
