<svg width="50" height="50" viewBox="0 0 50 50" fill="none" xmlns="http://www.w3.org/2000/svg">
<path d="M42.6788 7.32202C37.9566 2.60093 31.6788 0 25.001 0C18.3232 0 12.0443 2.60093 7.32217 7.32202C2.60099 12.0441 0 18.3228 0 25.0005C0 31.6782 2.60099 37.9569 7.32217 42.678C12.0443 47.4001 18.3222 50 25 50C31.6778 50 37.9566 47.3991 42.6778 42.678C47.4 37.9559 50 31.6782 50 25.0005C50 18.3228 47.399 12.0451 42.6778 7.32301L42.6788 7.32202Z" fill="white" fill-opacity="0.4"/>
<path d="M38.6385 11.3628C34.9957 7.72079 30.1528 5.71436 25.0013 5.71436C19.8498 5.71436 15.0062 7.72079 11.3634 11.3628C7.72132 15.0055 5.71484 19.8491 5.71484 25.0004C5.71484 30.1518 7.72132 34.9954 11.3634 38.6374C15.0062 42.2801 19.8491 44.2858 25.0006 44.2858C30.152 44.2858 34.9957 42.2794 38.6377 38.6374C42.2806 34.9946 44.2863 30.1518 44.2863 25.0004C44.2863 19.8491 42.2798 15.0063 38.6377 11.3635L38.6385 11.3628Z" fill="white" fill-opacity="0.5"/>
<path d="M34.4176 15.5837C31.9023 13.069 28.5584 11.6836 25.0014 11.6836C21.4445 11.6836 18.1 13.069 15.5847 15.5837C13.07 18.0989 11.6846 21.4433 11.6846 25.0002C11.6846 28.5571 13.07 31.9014 15.5847 34.4161C18.1 36.9314 21.4439 38.3162 25.0009 38.3162C28.5579 38.3162 31.9023 36.9309 34.417 34.4161C36.9323 31.9009 38.3172 28.5571 38.3172 25.0002C38.3172 21.4433 36.9318 18.0994 34.417 15.5842L34.4176 15.5837Z" fill="white"/>
<path d="M30.5469 25.8223L22.8839 30.4124C22.7115 30.5156 22.5179 30.5674 22.3242 30.5674C22.1305 30.5674 21.9538 30.5204 21.7873 30.426C21.446 30.2323 21.2349 29.8707 21.2349 29.478V20.2977C21.2349 19.9055 21.446 19.5434 21.7873 19.3497C22.1286 19.156 22.5474 19.1614 22.8839 19.3628L30.5469 23.953C30.8757 24.1495 31.0766 24.5044 31.0766 24.8874C31.0766 25.2703 30.8757 25.6252 30.5469 25.8218V25.8223Z" fill="#15A34A"/>
</svg>
