<svg width="31" height="31" viewBox="0 0 31 31" fill="none" xmlns="http://www.w3.org/2000/svg">
<path d="M0 15.5C0 6.93959 6.93959 0 15.5 0C24.0604 0 31 6.93959 31 15.5C31 24.0604 24.0604 31 15.5 31C6.93959 31 0 24.0604 0 15.5Z" fill="white"/>
<path d="M13.7099 9.78921L18.7099 14.7892C18.8037 14.8822 18.8781 14.9928 18.9288 15.1146C18.9796 15.2365 19.0057 15.3672 19.0057 15.4992C19.0057 15.6312 18.9796 15.7619 18.9288 15.8838C18.8781 16.0056 18.8037 16.1162 18.7099 16.2092L13.7099 21.2092C13.617 21.3029 13.5064 21.3773 13.3845 21.4281C13.2627 21.4789 13.132 21.505 12.9999 21.505C12.8679 21.505 12.7372 21.4789 12.6154 21.4281C12.4935 21.3773 12.3829 21.3029 12.2899 21.2092C12.1962 21.1162 12.1218 21.0056 12.071 20.8838C12.0203 20.7619 11.9941 20.6312 11.9941 20.4992C11.9941 20.3672 12.0203 20.2365 12.071 20.1146C12.1218 19.9928 12.1962 19.8822 12.2899 19.7892L16.5899 15.4992L12.2899 11.2092C12.1016 11.0209 11.9958 10.7655 11.9958 10.4992C11.9958 10.3673 12.0218 10.2368 12.0723 10.115C12.1227 9.99314 12.1967 9.88245 12.2899 9.78921C12.4782 9.60091 12.7336 9.49512 12.9999 9.49512C13.1318 9.49512 13.2624 9.52109 13.3842 9.57155C13.506 9.62201 13.6167 9.69597 13.7099 9.78921Z" fill="#0F351D"/>
</svg>
